<svg width="48" height="49" viewBox="0 0 48 49" fill="none" xmlns="http://www.w3.org/2000/svg">
<g id="fluent:shield-checkmark-28-filled">
<path id="Vector" d="M23.2457 3.84898C23.4647 3.69083 23.7281 3.60571 23.9983 3.60571C24.2684 3.60571 24.5318 3.69083 24.7508 3.84898C25.8531 4.64441 28.3302 6.09812 31.4314 7.34784C34.5343 8.59927 38.1548 9.60555 41.568 9.60555C41.909 9.60555 42.236 9.74101 42.4771 9.98213C42.7182 10.2232 42.8537 10.5503 42.8537 10.8913V24.1804C42.8537 24.4581 42.8451 24.7358 42.828 25.0118C40.2349 23.077 37.0076 22.191 33.7901 22.5305C30.5726 22.87 27.6014 24.41 25.4692 26.8434C23.3369 29.2768 22.2005 32.4246 22.2866 35.6588C22.3727 38.893 23.675 41.9759 25.9337 44.2924C25.3713 44.4657 24.7988 44.6043 24.2194 44.7073L23.9965 44.745L23.7771 44.7073C19.9971 44.0473 15.3771 41.421 11.7205 37.809C8.06225 34.1936 5.14282 29.3696 5.14282 24.1804V10.8913C5.14282 10.5503 5.27828 10.2232 5.5194 9.98213C5.76052 9.74101 6.08754 9.60555 6.42854 9.60555C9.84168 9.60555 13.4622 8.59927 16.5668 7.34784C19.6663 6.09641 22.1434 4.64441 23.2457 3.85069V3.84898ZM46.2857 35.3198C46.2857 38.2751 45.1117 41.1093 43.022 43.199C40.9323 45.2887 38.0981 46.4627 35.1428 46.4627C32.1876 46.4627 29.3533 45.2887 27.2636 43.199C25.1739 41.1093 24 38.2751 24 35.3198C24 32.3646 25.1739 29.5303 27.2636 27.4406C29.3533 25.351 32.1876 24.177 35.1428 24.177C38.0981 24.177 40.9323 25.351 43.022 27.4406C45.1117 29.5303 46.2857 32.3646 46.2857 35.3198ZM41.7497 30.4273C41.6701 30.3474 41.5755 30.2841 41.4713 30.2409C41.3672 30.1977 41.2556 30.1754 41.1428 30.1754C41.0301 30.1754 40.9184 30.1977 40.8143 30.2409C40.7102 30.2841 40.6156 30.3474 40.536 30.4273L32.5714 38.3935L29.7497 35.5701C29.67 35.4904 29.5754 35.4272 29.4713 35.3841C29.3671 35.341 29.2555 35.3188 29.1428 35.3188C29.0301 35.3188 28.9185 35.341 28.8144 35.3841C28.7103 35.4272 28.6157 35.4904 28.536 35.5701C28.4563 35.6498 28.3931 35.7444 28.3499 35.8485C28.3068 35.9527 28.2846 36.0643 28.2846 36.177C28.2846 36.2897 28.3068 36.4013 28.3499 36.5054C28.3931 36.6095 28.4563 36.7041 28.536 36.7838L31.9645 40.2124C32.0442 40.2922 32.1387 40.3556 32.2429 40.3988C32.347 40.442 32.4587 40.4642 32.5714 40.4642C32.6841 40.4642 32.7958 40.442 32.8999 40.3988C33.004 40.3556 33.0986 40.2922 33.1783 40.2124L41.7497 31.641C41.8295 31.5614 41.8928 31.4668 41.936 31.3626C41.9793 31.2585 42.0015 31.1469 42.0015 31.0341C42.0015 30.9214 41.9793 30.8097 41.936 30.7056C41.8928 30.6015 41.8295 30.5069 41.7497 30.4273Z" fill="#3A3A85"/>
</g>
</svg>
