<svg width="48" height="49" viewBox="0 0 48 49" fill="none" xmlns="http://www.w3.org/2000/svg">
<g id="ic:round-room-service">
<path id="Vector" d="M6 34.177H42C43.1 34.177 44 35.077 44 36.177C44 37.277 43.1 38.177 42 38.177H6C4.9 38.177 4 37.277 4 36.177C4 35.077 4.9 34.177 6 34.177ZM27.68 15.757C27.9386 15.1479 28.0426 14.4844 27.9826 13.8254C27.9226 13.1665 27.7006 12.5325 27.3363 11.9802C26.972 11.4278 26.4768 10.9741 25.8947 10.6595C25.3126 10.3449 24.6617 10.1791 24 10.177C23.3383 10.1791 22.6874 10.3449 22.1053 10.6595C21.5232 10.9741 21.028 11.4278 20.6637 11.9802C20.2994 12.5325 20.0774 13.1665 20.0174 13.8254C19.9574 14.4844 20.0614 15.1479 20.32 15.757C12.5 17.377 6.54 24.037 6 32.177H42C41.46 24.037 35.5 17.377 27.68 15.757Z" fill="#EB3238"/>
</g>
</svg>
