<svg width="40" height="40" viewBox="0 0 40 40" fill="none" xmlns="http://www.w3.org/2000/svg">
<g id="icons8_tune 1">
<path id="Vector" d="M33.2536 6.69824H21.3088C21.4951 7.22033 21.6148 7.774 21.6148 8.36093C21.6148 8.94786 21.4951 9.50154 21.3088 10.0236H33.2536C34.1714 10.0236 34.9163 9.27874 34.9163 8.36093C34.9163 7.44313 34.1714 6.69824 33.2536 6.69824Z" fill="#3A3A85"/>
<path id="Vector_2" d="M6.65073 10.0236H11.9447C11.7585 9.50154 11.6388 8.94786 11.6388 8.36093C11.6388 7.774 11.7585 7.22033 11.9447 6.69824H6.65073C5.73292 6.69824 4.98804 7.44313 4.98804 8.36093C4.98804 9.27874 5.73292 10.0236 6.65073 10.0236Z" fill="#3A3A85"/>
<path id="Vector_3" opacity="0.35" d="M16.6267 13.3492C19.3816 13.3492 21.6148 11.116 21.6148 8.36112C21.6148 5.60628 19.3816 3.37305 16.6267 3.37305C13.8719 3.37305 11.6387 5.60628 11.6387 8.36112C11.6387 11.116 13.8719 13.3492 16.6267 13.3492Z" fill="#3A3A85"/>
<path id="Vector_4" d="M33.2536 18.3374H29.6223C29.8085 18.8595 29.9282 19.4132 29.9282 20.0001C29.9282 20.587 29.8085 21.1407 29.6223 21.6628H33.2536C34.1714 21.6628 34.9163 20.9179 34.9163 20.0001C34.9163 19.0823 34.1714 18.3374 33.2536 18.3374Z" fill="#3A3A85"/>
<path id="Vector_5" d="M6.65073 21.6628H20.2582C20.072 21.1407 19.9523 20.587 19.9523 20.0001C19.9523 19.4132 20.072 18.8595 20.2582 18.3374H6.65073C5.73292 18.3374 4.98804 19.0823 4.98804 20.0001C4.98804 20.9179 5.73292 21.6628 6.65073 21.6628Z" fill="#3A3A85"/>
<path id="Vector_6" opacity="0.35" d="M24.9405 24.9879C27.6953 24.9879 29.9285 22.7546 29.9285 19.9998C29.9285 17.245 27.6953 15.0117 24.9405 15.0117C22.1856 15.0117 19.9524 17.245 19.9524 19.9998C19.9524 22.7546 22.1856 24.9879 24.9405 24.9879Z" fill="#3A3A85"/>
<path id="Vector_7" d="M33.2536 29.9762H21.3088C21.4951 30.4983 21.6148 31.052 21.6148 31.6389C21.6148 32.2258 21.4951 32.7795 21.3088 33.3016H33.2536C34.1714 33.3016 34.9163 32.5567 34.9163 31.6389C34.9163 30.7211 34.1714 29.9762 33.2536 29.9762Z" fill="#3A3A85"/>
<path id="Vector_8" d="M6.65073 33.3016H11.9447C11.7585 32.7795 11.6388 32.2258 11.6388 31.6389C11.6388 31.052 11.7585 30.4983 11.9447 29.9762H6.65073C5.73292 29.9762 4.98804 30.7211 4.98804 31.6389C4.98804 32.5567 5.73292 33.3016 6.65073 33.3016Z" fill="#3A3A85"/>
<path id="Vector_9" opacity="0.35" d="M16.6267 36.627C19.3816 36.627 21.6148 34.3938 21.6148 31.639C21.6148 28.8841 19.3816 26.6509 16.6267 26.6509C13.8719 26.6509 11.6387 28.8841 11.6387 31.639C11.6387 34.3938 13.8719 36.627 16.6267 36.627Z" fill="#3A3A85"/>
</g>
</svg>
