<svg width="40" height="40" viewBox="0 0 40 40" fill="none" xmlns="http://www.w3.org/2000/svg">
<g id="icons8_filter_and_sort 1" clip-path="url(#clip0_3960_2854)">
<path id="Vector" d="M34.1193 8.37256C33.4782 8.37256 6.52176 8.37256 5.88057 8.37256C4.50518 8.37256 3.38892 9.48882 3.38892 10.8642C3.38892 12.2396 4.50518 13.3559 5.88057 13.3559C6.52176 13.3559 33.4782 13.3559 34.1193 13.3559C35.4947 13.3559 36.611 12.2396 36.611 10.8642C36.611 9.48882 35.4947 8.37256 34.1193 8.37256Z" fill="#3A3A85"/>
<path id="Vector_2" opacity="0.15" d="M6.71094 13.356L12.7059 20.5502C14.1992 22.3409 15.0165 24.6 15.0165 26.9305V35.9071C15.0165 37.5317 16.1909 38.917 17.7922 39.1845L22.0811 39.8987C23.601 40.1529 24.9831 38.9818 24.9831 37.442V26.9322C24.9831 24.6 25.8003 22.3425 27.2937 20.5519L33.2886 13.356H6.71094Z" fill="#3A3A85"/>
</g>
<defs>
<clipPath id="clip0_3960_2854">
<rect width="39.8665" height="39.8665" fill="white" transform="translate(0.0666504 0.0668945)"/>
</clipPath>
</defs>
</svg>
