<svg width="42" height="42" viewBox="0 0 42 42" fill="none" xmlns="http://www.w3.org/2000/svg">
<g id="People Skin Type 7" clip-path="url(#clip0_3960_2926)">
<path id="Vector" opacity="0.15" d="M20.9999 17.5418C24.8199 17.5418 27.9166 14.4451 27.9166 10.6252C27.9166 6.80519 24.8199 3.7085 20.9999 3.7085C17.1799 3.7085 14.0833 6.80519 14.0833 10.6252C14.0833 14.4451 17.1799 17.5418 20.9999 17.5418Z" fill="#3A3A85"/>
<path id="Vector_2" opacity="0.15" d="M8.03117 20.9998C10.4186 20.9998 12.3541 19.0644 12.3541 16.6769C12.3541 14.2894 10.4186 12.354 8.03117 12.354C5.64369 12.354 3.70825 14.2894 3.70825 16.6769C3.70825 19.0644 5.64369 20.9998 8.03117 20.9998Z" fill="#3A3A85"/>
<path id="Vector_3" opacity="0.15" d="M33.9687 20.9998C36.3562 20.9998 38.2916 19.0644 38.2916 16.6769C38.2916 14.2894 36.3562 12.354 33.9687 12.354C31.5812 12.354 29.6458 14.2894 29.6458 16.6769C29.6458 19.0644 31.5812 20.9998 33.9687 20.9998Z" fill="#3A3A85"/>
<path id="Vector_4" d="M26.1875 33.1042H15.8125C12.9473 33.1042 10.625 30.3946 10.625 27.0521C10.625 23.7096 12.9473 21 15.8125 21H26.1875C29.0527 21 31.375 23.7096 31.375 27.0521C31.375 30.3946 29.0527 33.1042 26.1875 33.1042Z" fill="#3A3A85"/>
<path id="Vector_5" opacity="0.15" d="M37.5153 24.4585H4.35158C2.08637 24.4585 0.25 26.2949 0.25 28.5601V29.0045C0.25 31.268 2.08637 33.1043 4.35158 33.1043H37.5153C39.8531 33.1043 41.75 31.2074 41.75 28.8679V28.6932C41.75 26.3554 39.8531 24.4585 37.5153 24.4585Z" fill="#3A3A85"/>
</g>
<defs>
<clipPath id="clip0_3960_2926">
<rect width="41.5" height="41.5" fill="white" transform="translate(0.25 0.25)"/>
</clipPath>
</defs>
</svg>
