<svg width="48" height="49" viewBox="0 0 48 49" fill="none" xmlns="http://www.w3.org/2000/svg">
<g id="teenyicons:bulb-on-solid" clip-path="url(#clip0_1723_2159)">
<path id="Vector" d="M22.4 0.177002V6.577H25.6V0.177002H22.4ZM10.7328 11.8442L5.9328 7.0442L3.6672 9.3098L8.4672 14.1098L10.7328 11.8442ZM39.5328 14.1098L44.3328 9.3098L42.0672 7.0442L37.2672 11.8442L39.5328 14.1098ZM24 9.777C20.9496 9.77649 18.0014 10.8766 15.697 12.8754C13.3926 14.8741 11.8867 17.6371 11.456 20.657L11.424 20.881C11.1807 22.5634 11.2793 24.2775 11.7136 25.9209C12.148 27.5644 12.9093 29.1033 13.952 30.4458C15.1776 32.0298 16 33.5434 16 35.0602V40.177C16 40.6013 16.1686 41.0083 16.4686 41.3084C16.7687 41.6084 17.1757 41.777 17.6 41.777H30.4C30.8243 41.777 31.2313 41.6084 31.5314 41.3084C31.8314 41.0083 32 40.6013 32 40.177V35.0602C32 33.5434 32.8224 32.0298 34.048 30.4458C36.064 27.841 37.0816 24.4458 36.576 20.8778L36.544 20.6538C36.1126 17.6345 34.6064 14.8722 32.3021 12.8741C29.9978 10.8761 27.05 9.77638 24 9.777ZM0 25.777H6.4V22.577H0V25.777ZM41.6 25.777H48V22.577H41.6V25.777ZM19.2 48.177H28.8V44.977H19.2V48.177Z" fill="#3A3A85"/>
</g>
<defs>
<clipPath id="clip0_1723_2159">
<rect width="48" height="48" fill="white" transform="translate(0 0.177002)"/>
</clipPath>
</defs>
</svg>
